<mxfile host="app.diagrams.net" modified="2023-11-02T14:38:58.203Z" agent="Mozilla/5.0 (Windows NT 10.0; Win64; x64) AppleWebKit/537.36 (KHTML, like Gecko) Chrome/118.0.0.0 Safari/537.36" etag="uJQ9PFSVh5VL8GMQXRL0" version="22.0.8" type="device">
  <diagram name="第 1 页" id="YzIPJeM54T3Kk7QjpwN6">
    <mxGraphModel dx="1134" dy="2393" grid="0" gridSize="10" guides="1" tooltips="1" connect="1" arrows="1" fold="1" page="1" pageScale="1" pageWidth="827" pageHeight="1169" math="0" shadow="0">
      <root>
        <mxCell id="0" />
        <mxCell id="1" parent="0" />
        <mxCell id="PQWU9yBDBzz132E5K3Gb-1" value="&lt;font style=&quot;font-size: 30px;&quot;&gt;類圖思維導圖&lt;/font&gt;" style="text;html=1;strokeColor=none;fillColor=none;align=center;verticalAlign=middle;whiteSpace=wrap;rounded=0;" vertex="1" parent="1">
          <mxGeometry y="-1167" width="206" height="60" as="geometry" />
        </mxCell>
        <mxCell id="PQWU9yBDBzz132E5K3Gb-2" value="&lt;font style=&quot;font-size: 24px;&quot;&gt;類圖&lt;/font&gt;" style="rounded=1;whiteSpace=wrap;html=1;" vertex="1" parent="1">
          <mxGeometry x="28" y="-712" width="63" height="60" as="geometry" />
        </mxCell>
        <mxCell id="PQWU9yBDBzz132E5K3Gb-3" value="&lt;font style=&quot;font-size: 24px;&quot;&gt;類&lt;/font&gt;" style="rounded=1;whiteSpace=wrap;html=1;" vertex="1" parent="1">
          <mxGeometry x="164" y="-1037" width="58" height="60" as="geometry" />
        </mxCell>
        <mxCell id="PQWU9yBDBzz132E5K3Gb-4" value="&lt;span style=&quot;font-size: 24px;&quot;&gt;類的關係、順序&lt;/span&gt;" style="rounded=1;whiteSpace=wrap;html=1;" vertex="1" parent="1">
          <mxGeometry x="164" y="-754" width="204" height="60" as="geometry" />
        </mxCell>
        <mxCell id="PQWU9yBDBzz132E5K3Gb-5" value="&lt;span style=&quot;font-size: 24px;&quot;&gt;類圖構成&lt;/span&gt;" style="rounded=1;whiteSpace=wrap;html=1;" vertex="1" parent="1">
          <mxGeometry x="191" y="-387" width="122" height="60" as="geometry" />
        </mxCell>
        <mxCell id="PQWU9yBDBzz132E5K3Gb-6" value="&lt;font style=&quot;font-size: 24px;&quot;&gt;類圖深入討論&lt;/font&gt;" style="rounded=1;whiteSpace=wrap;html=1;" vertex="1" parent="1">
          <mxGeometry x="128" y="-139" width="163" height="60" as="geometry" />
        </mxCell>
        <mxCell id="PQWU9yBDBzz132E5K3Gb-8" value="" style="strokeWidth=2;html=1;shape=mxgraph.flowchart.annotation_1;align=left;pointerEvents=1;" vertex="1" parent="1">
          <mxGeometry x="253" y="-1091" width="108" height="168" as="geometry" />
        </mxCell>
        <mxCell id="PQWU9yBDBzz132E5K3Gb-10" value="" style="endArrow=none;html=1;rounded=0;exitX=1;exitY=0.5;exitDx=0;exitDy=0;entryX=0;entryY=0.5;entryDx=0;entryDy=0;entryPerimeter=0;" edge="1" parent="1" source="PQWU9yBDBzz132E5K3Gb-3" target="PQWU9yBDBzz132E5K3Gb-8">
          <mxGeometry width="50" height="50" relative="1" as="geometry">
            <mxPoint x="420" y="-642" as="sourcePoint" />
            <mxPoint x="470" y="-692" as="targetPoint" />
          </mxGeometry>
        </mxCell>
        <mxCell id="PQWU9yBDBzz132E5K3Gb-13" value="" style="strokeWidth=2;html=1;shape=mxgraph.flowchart.annotation_1;align=left;pointerEvents=1;" vertex="1" parent="1">
          <mxGeometry x="364" y="-946" width="75" height="41" as="geometry" />
        </mxCell>
        <mxCell id="PQWU9yBDBzz132E5K3Gb-15" value="" style="endArrow=none;html=1;rounded=0;exitX=0;exitY=0.5;exitDx=0;exitDy=0;exitPerimeter=0;" edge="1" parent="1" source="PQWU9yBDBzz132E5K3Gb-8">
          <mxGeometry width="50" height="50" relative="1" as="geometry">
            <mxPoint x="420" y="-642" as="sourcePoint" />
            <mxPoint x="421" y="-1007" as="targetPoint" />
          </mxGeometry>
        </mxCell>
        <mxCell id="PQWU9yBDBzz132E5K3Gb-16" value="" style="strokeWidth=2;html=1;shape=mxgraph.flowchart.annotation_1;align=left;pointerEvents=1;" vertex="1" parent="1">
          <mxGeometry x="372" y="-1039" width="50" height="62" as="geometry" />
        </mxCell>
        <mxCell id="PQWU9yBDBzz132E5K3Gb-17" value="&lt;font style=&quot;font-size: 20px;&quot;&gt;圖形表示&lt;/font&gt;" style="text;html=1;strokeColor=none;fillColor=none;align=center;verticalAlign=middle;whiteSpace=wrap;rounded=0;" vertex="1" parent="1">
          <mxGeometry x="247" y="-1122" width="109" height="30" as="geometry" />
        </mxCell>
        <mxCell id="PQWU9yBDBzz132E5K3Gb-18" value="&lt;font style=&quot;font-size: 20px;&quot;&gt;類的表示&lt;/font&gt;" style="text;html=1;strokeColor=none;fillColor=none;align=center;verticalAlign=middle;whiteSpace=wrap;rounded=0;" vertex="1" parent="1">
          <mxGeometry x="259" y="-1043" width="109" height="30" as="geometry" />
        </mxCell>
        <mxCell id="PQWU9yBDBzz132E5K3Gb-20" value="&lt;font style=&quot;font-size: 20px;&quot;&gt;類的隱藏&lt;/font&gt;" style="text;html=1;strokeColor=none;fillColor=none;align=center;verticalAlign=middle;whiteSpace=wrap;rounded=0;" vertex="1" parent="1">
          <mxGeometry x="247" y="-953" width="113" height="30" as="geometry" />
        </mxCell>
        <mxCell id="PQWU9yBDBzz132E5K3Gb-21" value="&lt;font style=&quot;font-size: 20px;&quot;&gt;+&lt;/font&gt;" style="text;html=1;strokeColor=none;fillColor=none;align=center;verticalAlign=middle;whiteSpace=wrap;rounded=0;" vertex="1" parent="1">
          <mxGeometry x="352" y="-1073" width="109" height="30" as="geometry" />
        </mxCell>
        <mxCell id="PQWU9yBDBzz132E5K3Gb-22" value="&lt;font style=&quot;font-size: 20px;&quot;&gt;-&lt;/font&gt;" style="text;html=1;strokeColor=none;fillColor=none;align=center;verticalAlign=middle;whiteSpace=wrap;rounded=0;" vertex="1" parent="1">
          <mxGeometry x="352" y="-1037" width="109" height="30" as="geometry" />
        </mxCell>
        <mxCell id="PQWU9yBDBzz132E5K3Gb-23" value="&lt;font style=&quot;font-size: 20px;&quot;&gt;#&lt;/font&gt;" style="text;html=1;strokeColor=none;fillColor=none;align=center;verticalAlign=middle;whiteSpace=wrap;rounded=0;" vertex="1" parent="1">
          <mxGeometry x="352" y="-1004" width="109" height="30" as="geometry" />
        </mxCell>
        <mxCell id="PQWU9yBDBzz132E5K3Gb-24" value="&lt;font style=&quot;font-size: 20px;&quot;&gt;屬性&lt;/font&gt;" style="text;html=1;strokeColor=none;fillColor=none;align=center;verticalAlign=middle;whiteSpace=wrap;rounded=0;" vertex="1" parent="1">
          <mxGeometry x="368" y="-972" width="109" height="30" as="geometry" />
        </mxCell>
        <mxCell id="PQWU9yBDBzz132E5K3Gb-25" value="&lt;font style=&quot;font-size: 20px;&quot;&gt;方法&lt;/font&gt;" style="text;html=1;strokeColor=none;fillColor=none;align=center;verticalAlign=middle;whiteSpace=wrap;rounded=0;" vertex="1" parent="1">
          <mxGeometry x="368" y="-940.5" width="109" height="30" as="geometry" />
        </mxCell>
        <mxCell id="PQWU9yBDBzz132E5K3Gb-27" value="" style="endArrow=none;html=1;rounded=0;exitX=0.5;exitY=0;exitDx=0;exitDy=0;entryX=0;entryY=0.5;entryDx=0;entryDy=0;" edge="1" parent="1" source="PQWU9yBDBzz132E5K3Gb-2" target="PQWU9yBDBzz132E5K3Gb-3">
          <mxGeometry width="50" height="50" relative="1" as="geometry">
            <mxPoint x="420" y="-664" as="sourcePoint" />
            <mxPoint x="470" y="-714" as="targetPoint" />
            <Array as="points">
              <mxPoint x="59" y="-1007" />
            </Array>
          </mxGeometry>
        </mxCell>
        <mxCell id="PQWU9yBDBzz132E5K3Gb-28" value="" style="endArrow=none;html=1;rounded=0;exitX=0.25;exitY=1;exitDx=0;exitDy=0;entryX=0;entryY=0.5;entryDx=0;entryDy=0;" edge="1" parent="1" source="PQWU9yBDBzz132E5K3Gb-2" target="PQWU9yBDBzz132E5K3Gb-6">
          <mxGeometry width="50" height="50" relative="1" as="geometry">
            <mxPoint x="420" y="-294" as="sourcePoint" />
            <mxPoint x="470" y="-344" as="targetPoint" />
            <Array as="points">
              <mxPoint x="44" y="-109" />
            </Array>
          </mxGeometry>
        </mxCell>
        <mxCell id="PQWU9yBDBzz132E5K3Gb-29" value="" style="endArrow=none;html=1;rounded=0;exitX=0.75;exitY=1;exitDx=0;exitDy=0;entryX=0;entryY=0.5;entryDx=0;entryDy=0;" edge="1" parent="1" source="PQWU9yBDBzz132E5K3Gb-2" target="PQWU9yBDBzz132E5K3Gb-5">
          <mxGeometry width="50" height="50" relative="1" as="geometry">
            <mxPoint x="420" y="-294" as="sourcePoint" />
            <mxPoint x="470" y="-344" as="targetPoint" />
            <Array as="points">
              <mxPoint x="75" y="-357" />
            </Array>
          </mxGeometry>
        </mxCell>
        <mxCell id="PQWU9yBDBzz132E5K3Gb-30" value="" style="endArrow=none;html=1;rounded=0;exitX=1;exitY=0.5;exitDx=0;exitDy=0;entryX=0;entryY=0.5;entryDx=0;entryDy=0;" edge="1" parent="1" source="PQWU9yBDBzz132E5K3Gb-2" target="PQWU9yBDBzz132E5K3Gb-4">
          <mxGeometry width="50" height="50" relative="1" as="geometry">
            <mxPoint x="420" y="-664" as="sourcePoint" />
            <mxPoint x="470" y="-714" as="targetPoint" />
            <Array as="points">
              <mxPoint x="110" y="-724" />
            </Array>
          </mxGeometry>
        </mxCell>
        <mxCell id="PQWU9yBDBzz132E5K3Gb-31" value="" style="strokeWidth=2;html=1;shape=mxgraph.flowchart.annotation_1;align=left;pointerEvents=1;" vertex="1" parent="1">
          <mxGeometry x="356" y="-205" width="129" height="192" as="geometry" />
        </mxCell>
        <mxCell id="PQWU9yBDBzz132E5K3Gb-33" value="" style="endArrow=none;html=1;rounded=0;exitX=1;exitY=0.5;exitDx=0;exitDy=0;" edge="1" parent="1" source="PQWU9yBDBzz132E5K3Gb-6" target="PQWU9yBDBzz132E5K3Gb-31">
          <mxGeometry width="50" height="50" relative="1" as="geometry">
            <mxPoint x="420" y="-109" as="sourcePoint" />
            <mxPoint x="470" y="-159" as="targetPoint" />
          </mxGeometry>
        </mxCell>
        <mxCell id="PQWU9yBDBzz132E5K3Gb-34" value="" style="strokeWidth=2;html=1;shape=mxgraph.flowchart.annotation_1;align=left;pointerEvents=1;" vertex="1" parent="1">
          <mxGeometry x="485" y="-232" width="87" height="49" as="geometry" />
        </mxCell>
        <mxCell id="PQWU9yBDBzz132E5K3Gb-35" value="" style="endArrow=none;html=1;rounded=0;exitX=0.008;exitY=0.342;exitDx=0;exitDy=0;exitPerimeter=0;" edge="1" parent="1" source="PQWU9yBDBzz132E5K3Gb-31">
          <mxGeometry width="50" height="50" relative="1" as="geometry">
            <mxPoint x="420" y="-109" as="sourcePoint" />
            <mxPoint x="544" y="-139" as="targetPoint" />
          </mxGeometry>
        </mxCell>
        <mxCell id="PQWU9yBDBzz132E5K3Gb-36" value="" style="endArrow=none;html=1;rounded=0;exitX=-0.003;exitY=0.563;exitDx=0;exitDy=0;exitPerimeter=0;" edge="1" parent="1" source="PQWU9yBDBzz132E5K3Gb-31">
          <mxGeometry width="50" height="50" relative="1" as="geometry">
            <mxPoint x="420" y="-109" as="sourcePoint" />
            <mxPoint x="538" y="-97" as="targetPoint" />
          </mxGeometry>
        </mxCell>
        <mxCell id="PQWU9yBDBzz132E5K3Gb-37" value="" style="endArrow=none;html=1;rounded=0;exitX=-0.003;exitY=0.792;exitDx=0;exitDy=0;exitPerimeter=0;entryX=0.612;entryY=0.792;entryDx=0;entryDy=0;entryPerimeter=0;" edge="1" parent="1" source="PQWU9yBDBzz132E5K3Gb-31" target="PQWU9yBDBzz132E5K3Gb-31">
          <mxGeometry width="50" height="50" relative="1" as="geometry">
            <mxPoint x="420" y="-109" as="sourcePoint" />
            <mxPoint x="470" y="-159" as="targetPoint" />
          </mxGeometry>
        </mxCell>
        <mxCell id="PQWU9yBDBzz132E5K3Gb-40" value="&lt;font style=&quot;font-size: 20px;&quot;&gt;可見性&lt;/font&gt;" style="text;html=1;strokeColor=none;fillColor=none;align=center;verticalAlign=middle;whiteSpace=wrap;rounded=0;" vertex="1" parent="1">
          <mxGeometry x="342.5" y="-235" width="109" height="30" as="geometry" />
        </mxCell>
        <mxCell id="PQWU9yBDBzz132E5K3Gb-42" value="&lt;font style=&quot;font-size: 20px;&quot;&gt;範圍&lt;/font&gt;" style="text;html=1;strokeColor=none;fillColor=none;align=center;verticalAlign=middle;whiteSpace=wrap;rounded=0;" vertex="1" parent="1">
          <mxGeometry x="342.5" y="-172" width="109" height="30" as="geometry" />
        </mxCell>
        <mxCell id="PQWU9yBDBzz132E5K3Gb-45" value="&lt;font style=&quot;font-size: 20px;&quot;&gt;抽象類&lt;/font&gt;" style="text;html=1;strokeColor=none;fillColor=none;align=center;verticalAlign=middle;whiteSpace=wrap;rounded=0;" vertex="1" parent="1">
          <mxGeometry x="342.5" y="-131" width="109" height="30" as="geometry" />
        </mxCell>
        <mxCell id="PQWU9yBDBzz132E5K3Gb-46" value="&lt;font style=&quot;font-size: 20px;&quot;&gt;多重性&lt;/font&gt;" style="text;html=1;strokeColor=none;fillColor=none;align=center;verticalAlign=middle;whiteSpace=wrap;rounded=0;" vertex="1" parent="1">
          <mxGeometry x="342.5" y="-85" width="109" height="30" as="geometry" />
        </mxCell>
        <mxCell id="PQWU9yBDBzz132E5K3Gb-47" value="&lt;font style=&quot;font-size: 20px;&quot;&gt;屬性、方法修飾&lt;/font&gt;" style="text;html=1;strokeColor=none;fillColor=none;align=center;verticalAlign=middle;whiteSpace=wrap;rounded=0;" vertex="1" parent="1">
          <mxGeometry x="342.5" y="-48" width="182.5" height="30" as="geometry" />
        </mxCell>
        <mxCell id="PQWU9yBDBzz132E5K3Gb-48" value="&lt;font style=&quot;font-size: 20px;&quot;&gt;手工&lt;/font&gt;" style="text;html=1;strokeColor=none;fillColor=none;align=center;verticalAlign=middle;whiteSpace=wrap;rounded=0;" vertex="1" parent="1">
          <mxGeometry x="481" y="-265" width="109" height="30" as="geometry" />
        </mxCell>
        <mxCell id="PQWU9yBDBzz132E5K3Gb-49" value="&lt;font style=&quot;font-size: 20px;&quot;&gt;Rose&lt;/font&gt;" style="text;html=1;strokeColor=none;fillColor=none;align=center;verticalAlign=middle;whiteSpace=wrap;rounded=0;" vertex="1" parent="1">
          <mxGeometry x="481" y="-219" width="109" height="30" as="geometry" />
        </mxCell>
        <mxCell id="PQWU9yBDBzz132E5K3Gb-52" value="&lt;font style=&quot;font-size: 20px;&quot;&gt;靜態成員&lt;/font&gt;" style="text;html=1;strokeColor=none;fillColor=none;align=center;verticalAlign=middle;whiteSpace=wrap;rounded=0;" vertex="1" parent="1">
          <mxGeometry x="448" y="-175" width="109" height="30" as="geometry" />
        </mxCell>
        <mxCell id="PQWU9yBDBzz132E5K3Gb-53" value="&lt;font style=&quot;font-size: 20px;&quot;&gt;表示&lt;/font&gt;" style="text;html=1;strokeColor=none;fillColor=none;align=center;verticalAlign=middle;whiteSpace=wrap;rounded=0;" vertex="1" parent="1">
          <mxGeometry x="448" y="-128" width="109" height="30" as="geometry" />
        </mxCell>
        <mxCell id="PQWU9yBDBzz132E5K3Gb-54" value="" style="endArrow=none;html=1;rounded=0;exitX=1;exitY=0.5;exitDx=0;exitDy=0;" edge="1" parent="1" source="PQWU9yBDBzz132E5K3Gb-5">
          <mxGeometry width="50" height="50" relative="1" as="geometry">
            <mxPoint x="458" y="-626" as="sourcePoint" />
            <mxPoint x="341" y="-357" as="targetPoint" />
          </mxGeometry>
        </mxCell>
        <mxCell id="PQWU9yBDBzz132E5K3Gb-55" value="" style="strokeWidth=2;html=1;shape=mxgraph.flowchart.annotation_1;align=left;pointerEvents=1;" vertex="1" parent="1">
          <mxGeometry x="342.5" y="-447.5" width="50" height="181" as="geometry" />
        </mxCell>
        <mxCell id="PQWU9yBDBzz132E5K3Gb-56" value="" style="endArrow=none;html=1;rounded=0;exitX=1;exitY=0;exitDx=0;exitDy=0;exitPerimeter=0;" edge="1" parent="1" source="PQWU9yBDBzz132E5K3Gb-55">
          <mxGeometry width="50" height="50" relative="1" as="geometry">
            <mxPoint x="458" y="-626" as="sourcePoint" />
            <mxPoint x="508" y="-448" as="targetPoint" />
          </mxGeometry>
        </mxCell>
        <mxCell id="PQWU9yBDBzz132E5K3Gb-57" value="" style="endArrow=none;html=1;rounded=0;exitX=-0.048;exitY=0.282;exitDx=0;exitDy=0;exitPerimeter=0;" edge="1" parent="1" source="PQWU9yBDBzz132E5K3Gb-55">
          <mxGeometry width="50" height="50" relative="1" as="geometry">
            <mxPoint x="353" y="-396" as="sourcePoint" />
            <mxPoint x="412" y="-396" as="targetPoint" />
          </mxGeometry>
        </mxCell>
        <mxCell id="PQWU9yBDBzz132E5K3Gb-58" value="" style="endArrow=none;html=1;rounded=0;" edge="1" parent="1">
          <mxGeometry width="50" height="50" relative="1" as="geometry">
            <mxPoint x="340" y="-326" as="sourcePoint" />
            <mxPoint x="418" y="-326" as="targetPoint" />
          </mxGeometry>
        </mxCell>
        <mxCell id="PQWU9yBDBzz132E5K3Gb-59" value="&lt;font style=&quot;font-size: 20px;&quot;&gt;類圖&lt;/font&gt;" style="text;html=1;strokeColor=none;fillColor=none;align=center;verticalAlign=middle;whiteSpace=wrap;rounded=0;" vertex="1" parent="1">
          <mxGeometry x="313" y="-480" width="109" height="30" as="geometry" />
        </mxCell>
        <mxCell id="PQWU9yBDBzz132E5K3Gb-60" value="&lt;font style=&quot;font-size: 20px;&quot;&gt;類圖步驟&lt;/font&gt;" style="text;html=1;strokeColor=none;fillColor=none;align=center;verticalAlign=middle;whiteSpace=wrap;rounded=0;" vertex="1" parent="1">
          <mxGeometry x="404" y="-477.5" width="109" height="30" as="geometry" />
        </mxCell>
        <mxCell id="PQWU9yBDBzz132E5K3Gb-62" value="&lt;font style=&quot;font-size: 20px;&quot;&gt;接口&lt;/font&gt;" style="text;html=1;strokeColor=none;fillColor=none;align=center;verticalAlign=middle;whiteSpace=wrap;rounded=0;" vertex="1" parent="1">
          <mxGeometry x="330" y="-433" width="109" height="44" as="geometry" />
        </mxCell>
        <mxCell id="PQWU9yBDBzz132E5K3Gb-63" value="&lt;font style=&quot;font-size: 20px;&quot;&gt;方法&lt;/font&gt;" style="text;html=1;strokeColor=none;fillColor=none;align=center;verticalAlign=middle;whiteSpace=wrap;rounded=0;" vertex="1" parent="1">
          <mxGeometry x="323" y="-361" width="109" height="44" as="geometry" />
        </mxCell>
        <mxCell id="PQWU9yBDBzz132E5K3Gb-64" value="&lt;font style=&quot;font-size: 20px;&quot;&gt;協作&lt;/font&gt;" style="text;html=1;strokeColor=none;fillColor=none;align=center;verticalAlign=middle;whiteSpace=wrap;rounded=0;" vertex="1" parent="1">
          <mxGeometry x="326" y="-310.5" width="109" height="44" as="geometry" />
        </mxCell>
        <mxCell id="PQWU9yBDBzz132E5K3Gb-65" value="" style="endArrow=none;html=1;rounded=0;exitX=1;exitY=0.5;exitDx=0;exitDy=0;" edge="1" parent="1" source="PQWU9yBDBzz132E5K3Gb-4">
          <mxGeometry width="50" height="50" relative="1" as="geometry">
            <mxPoint x="458" y="-775" as="sourcePoint" />
            <mxPoint x="395" y="-724" as="targetPoint" />
          </mxGeometry>
        </mxCell>
        <mxCell id="PQWU9yBDBzz132E5K3Gb-66" value="" style="strokeWidth=2;html=1;shape=mxgraph.flowchart.annotation_1;align=left;pointerEvents=1;" vertex="1" parent="1">
          <mxGeometry x="395.5" y="-867" width="75.5" height="326" as="geometry" />
        </mxCell>
        <mxCell id="PQWU9yBDBzz132E5K3Gb-70" value="" style="strokeWidth=2;html=1;shape=mxgraph.flowchart.annotation_1;align=left;pointerEvents=1;" vertex="1" parent="1">
          <mxGeometry x="471" y="-910.5" width="126" height="108.5" as="geometry" />
        </mxCell>
        <mxCell id="PQWU9yBDBzz132E5K3Gb-71" value="" style="line;strokeWidth=1;rotatable=0;dashed=0;labelPosition=right;align=left;verticalAlign=middle;spacingTop=0;spacingLeft=6;points=[];portConstraint=eastwest;" vertex="1" parent="1">
          <mxGeometry x="471" y="-882" width="133" height="10" as="geometry" />
        </mxCell>
        <mxCell id="PQWU9yBDBzz132E5K3Gb-73" value="" style="line;strokeWidth=1;rotatable=0;dashed=0;labelPosition=right;align=left;verticalAlign=middle;spacingTop=0;spacingLeft=6;points=[];portConstraint=eastwest;" vertex="1" parent="1">
          <mxGeometry x="469" y="-845" width="133" height="10" as="geometry" />
        </mxCell>
        <mxCell id="PQWU9yBDBzz132E5K3Gb-74" value="&lt;font style=&quot;font-size: 20px;&quot;&gt;泛化&lt;/font&gt;" style="text;html=1;strokeColor=none;fillColor=none;align=center;verticalAlign=middle;whiteSpace=wrap;rounded=0;" vertex="1" parent="1">
          <mxGeometry x="372" y="-897" width="109" height="30" as="geometry" />
        </mxCell>
        <mxCell id="PQWU9yBDBzz132E5K3Gb-79" value="&lt;font style=&quot;font-size: 20px;&quot;&gt;繼承&lt;/font&gt;" style="text;html=1;strokeColor=none;fillColor=none;align=center;verticalAlign=middle;whiteSpace=wrap;rounded=0;" vertex="1" parent="1">
          <mxGeometry x="372" y="-865" width="109" height="30" as="geometry" />
        </mxCell>
        <mxCell id="PQWU9yBDBzz132E5K3Gb-80" value="&lt;font style=&quot;font-size: 20px;&quot;&gt;is a kind of&lt;/font&gt;" style="text;html=1;strokeColor=none;fillColor=none;align=center;verticalAlign=middle;whiteSpace=wrap;rounded=0;" vertex="1" parent="1">
          <mxGeometry x="477" y="-940.5" width="109" height="30" as="geometry" />
        </mxCell>
        <mxCell id="PQWU9yBDBzz132E5K3Gb-81" value="&lt;font style=&quot;font-size: 20px;&quot;&gt;圖表&lt;/font&gt;" style="text;html=1;strokeColor=none;fillColor=none;align=center;verticalAlign=middle;whiteSpace=wrap;rounded=0;" vertex="1" parent="1">
          <mxGeometry x="477" y="-905" width="109" height="30" as="geometry" />
        </mxCell>
        <mxCell id="PQWU9yBDBzz132E5K3Gb-82" value="&lt;font style=&quot;font-size: 20px;&quot;&gt;單重繼承&lt;/font&gt;" style="text;html=1;strokeColor=none;fillColor=none;align=center;verticalAlign=middle;whiteSpace=wrap;rounded=0;" vertex="1" parent="1">
          <mxGeometry x="477" y="-872" width="109" height="30" as="geometry" />
        </mxCell>
        <mxCell id="PQWU9yBDBzz132E5K3Gb-83" value="&lt;font style=&quot;font-size: 20px;&quot;&gt;多重繼承&lt;/font&gt;" style="text;html=1;strokeColor=none;fillColor=none;align=center;verticalAlign=middle;whiteSpace=wrap;rounded=0;" vertex="1" parent="1">
          <mxGeometry x="479.5" y="-832" width="109" height="30" as="geometry" />
        </mxCell>
        <mxCell id="PQWU9yBDBzz132E5K3Gb-85" value="" style="line;strokeWidth=1;rotatable=0;dashed=0;labelPosition=right;align=left;verticalAlign=middle;spacingTop=0;spacingLeft=6;points=[];portConstraint=eastwest;" vertex="1" parent="1">
          <mxGeometry x="395.5" y="-807" width="226.5" height="85" as="geometry" />
        </mxCell>
        <mxCell id="PQWU9yBDBzz132E5K3Gb-86" value="&lt;font style=&quot;font-size: 20px;&quot;&gt;實現&lt;/font&gt;" style="text;html=1;strokeColor=none;fillColor=none;align=center;verticalAlign=middle;whiteSpace=wrap;rounded=0;" vertex="1" parent="1">
          <mxGeometry x="372" y="-796" width="109" height="30" as="geometry" />
        </mxCell>
        <mxCell id="PQWU9yBDBzz132E5K3Gb-87" value="&lt;font style=&quot;font-size: 20px;&quot;&gt;實現接口&lt;/font&gt;" style="text;html=1;strokeColor=none;fillColor=none;align=center;verticalAlign=middle;whiteSpace=wrap;rounded=0;" vertex="1" parent="1">
          <mxGeometry x="479.5" y="-796" width="109" height="30" as="geometry" />
        </mxCell>
        <mxCell id="PQWU9yBDBzz132E5K3Gb-88" value="" style="strokeWidth=2;html=1;shape=mxgraph.flowchart.annotation_1;align=left;pointerEvents=1;" vertex="1" parent="1">
          <mxGeometry x="471" y="-569" width="81" height="54" as="geometry" />
        </mxCell>
        <mxCell id="PQWU9yBDBzz132E5K3Gb-89" value="&lt;font style=&quot;font-size: 20px;&quot;&gt;依賴4&lt;/font&gt;" style="text;html=1;strokeColor=none;fillColor=none;align=center;verticalAlign=middle;whiteSpace=wrap;rounded=0;" vertex="1" parent="1">
          <mxGeometry x="372" y="-569" width="109" height="30" as="geometry" />
        </mxCell>
        <mxCell id="PQWU9yBDBzz132E5K3Gb-90" value="&lt;font style=&quot;font-size: 20px;&quot;&gt;表示&lt;/font&gt;" style="text;html=1;strokeColor=none;fillColor=none;align=center;verticalAlign=middle;whiteSpace=wrap;rounded=0;" vertex="1" parent="1">
          <mxGeometry x="454.25" y="-599" width="109" height="29" as="geometry" />
        </mxCell>
        <mxCell id="PQWU9yBDBzz132E5K3Gb-91" value="&lt;font style=&quot;font-size: 20px;&quot;&gt;use&lt;/font&gt;" style="text;html=1;strokeColor=none;fillColor=none;align=center;verticalAlign=middle;whiteSpace=wrap;rounded=0;" vertex="1" parent="1">
          <mxGeometry x="454.25" y="-551" width="109" height="30" as="geometry" />
        </mxCell>
        <mxCell id="PQWU9yBDBzz132E5K3Gb-93" value="" style="line;strokeWidth=1;rotatable=0;dashed=0;labelPosition=right;align=left;verticalAlign=middle;spacingTop=0;spacingLeft=6;points=[];portConstraint=eastwest;" vertex="1" parent="1">
          <mxGeometry x="395.5" y="-684" width="70.5" height="48" as="geometry" />
        </mxCell>
        <mxCell id="PQWU9yBDBzz132E5K3Gb-94" value="&lt;font style=&quot;font-size: 20px;&quot;&gt;關聯3&lt;/font&gt;" style="text;html=1;strokeColor=none;fillColor=none;align=center;verticalAlign=middle;whiteSpace=wrap;rounded=0;" vertex="1" parent="1">
          <mxGeometry x="376" y="-697" width="109" height="30" as="geometry" />
        </mxCell>
        <mxCell id="PQWU9yBDBzz132E5K3Gb-95" value="" style="strokeWidth=2;html=1;shape=mxgraph.flowchart.annotation_1;align=left;pointerEvents=1;" vertex="1" parent="1">
          <mxGeometry x="466" y="-716" width="90" height="100" as="geometry" />
        </mxCell>
        <mxCell id="PQWU9yBDBzz132E5K3Gb-96" value="&lt;font style=&quot;font-size: 20px;&quot;&gt;普通關聯&lt;/font&gt;" style="text;html=1;strokeColor=none;fillColor=none;align=center;verticalAlign=middle;whiteSpace=wrap;rounded=0;" vertex="1" parent="1">
          <mxGeometry x="457" y="-746" width="109" height="30" as="geometry" />
        </mxCell>
        <mxCell id="PQWU9yBDBzz132E5K3Gb-98" value="&lt;font style=&quot;font-size: 20px;&quot;&gt;關聯類&lt;/font&gt;" style="text;html=1;strokeColor=none;fillColor=none;align=center;verticalAlign=middle;whiteSpace=wrap;rounded=0;" vertex="1" parent="1">
          <mxGeometry x="457" y="-648" width="109" height="30" as="geometry" />
        </mxCell>
        <mxCell id="PQWU9yBDBzz132E5K3Gb-99" value="" style="line;strokeWidth=1;rotatable=0;dashed=0;labelPosition=right;align=left;verticalAlign=middle;spacingTop=0;spacingLeft=6;points=[];portConstraint=eastwest;" vertex="1" parent="1">
          <mxGeometry x="466" y="-687" width="343" height="10" as="geometry" />
        </mxCell>
        <mxCell id="PQWU9yBDBzz132E5K3Gb-100" value="&lt;font style=&quot;font-size: 20px;&quot;&gt;使用&lt;/font&gt;" style="text;html=1;strokeColor=none;fillColor=none;align=center;verticalAlign=middle;whiteSpace=wrap;rounded=0;" vertex="1" parent="1">
          <mxGeometry x="376" y="-537" width="109" height="30" as="geometry" />
        </mxCell>
        <mxCell id="PQWU9yBDBzz132E5K3Gb-101" value="&lt;span style=&quot;font-size: 20px;&quot;&gt;整體和部分關係&lt;/span&gt;" style="text;html=1;strokeColor=none;fillColor=none;align=center;verticalAlign=middle;whiteSpace=wrap;rounded=0;" vertex="1" parent="1">
          <mxGeometry x="456.5" y="-714" width="174.5" height="30" as="geometry" />
        </mxCell>
        <mxCell id="PQWU9yBDBzz132E5K3Gb-102" value="&lt;font style=&quot;font-size: 20px;&quot;&gt;構成&lt;/font&gt;" style="text;html=1;strokeColor=none;fillColor=none;align=center;verticalAlign=middle;whiteSpace=wrap;rounded=0;" vertex="1" parent="1">
          <mxGeometry x="461" y="-681" width="109" height="30" as="geometry" />
        </mxCell>
        <mxCell id="PQWU9yBDBzz132E5K3Gb-104" value="" style="line;strokeWidth=1;rotatable=0;dashed=0;labelPosition=right;align=left;verticalAlign=middle;spacingTop=0;spacingLeft=6;points=[];portConstraint=eastwest;" vertex="1" parent="1">
          <mxGeometry x="556" y="-725" width="70" height="18" as="geometry" />
        </mxCell>
        <mxCell id="PQWU9yBDBzz132E5K3Gb-105" value="" style="strokeWidth=2;html=1;shape=mxgraph.flowchart.annotation_1;align=left;pointerEvents=1;" vertex="1" parent="1">
          <mxGeometry x="622" y="-743" width="89" height="46" as="geometry" />
        </mxCell>
        <mxCell id="PQWU9yBDBzz132E5K3Gb-107" value="&lt;font style=&quot;font-size: 20px;&quot;&gt;圖形表示(直線)&lt;/font&gt;" style="text;html=1;strokeColor=none;fillColor=none;align=center;verticalAlign=middle;whiteSpace=wrap;rounded=0;" vertex="1" parent="1">
          <mxGeometry x="612" y="-773" width="144" height="30" as="geometry" />
        </mxCell>
        <mxCell id="PQWU9yBDBzz132E5K3Gb-108" value="&lt;font style=&quot;font-size: 20px;&quot;&gt;關聯方向&lt;/font&gt;" style="text;html=1;strokeColor=none;fillColor=none;align=center;verticalAlign=middle;whiteSpace=wrap;rounded=0;" vertex="1" parent="1">
          <mxGeometry x="612" y="-725" width="109" height="30" as="geometry" />
        </mxCell>
        <mxCell id="PQWU9yBDBzz132E5K3Gb-109" value="" style="strokeWidth=2;html=1;shape=mxgraph.flowchart.annotation_1;align=left;pointerEvents=1;" vertex="1" parent="1">
          <mxGeometry x="731" y="-739" width="76" height="117" as="geometry" />
        </mxCell>
        <mxCell id="PQWU9yBDBzz132E5K3Gb-110" value="&lt;font style=&quot;font-size: 20px;&quot;&gt;聚合&lt;/font&gt;" style="text;html=1;strokeColor=none;fillColor=none;align=center;verticalAlign=middle;whiteSpace=wrap;rounded=0;" vertex="1" parent="1">
          <mxGeometry x="731" y="-769" width="109" height="30" as="geometry" />
        </mxCell>
        <mxCell id="PQWU9yBDBzz132E5K3Gb-111" value="&lt;font style=&quot;font-size: 20px;&quot;&gt;生命約束&lt;/font&gt;" style="text;html=1;strokeColor=none;fillColor=none;align=center;verticalAlign=middle;whiteSpace=wrap;rounded=0;" vertex="1" parent="1">
          <mxGeometry x="731" y="-742" width="109" height="30" as="geometry" />
        </mxCell>
        <mxCell id="PQWU9yBDBzz132E5K3Gb-112" value="&lt;span style=&quot;font-size: 20px;&quot;&gt;組合&lt;/span&gt;" style="text;html=1;strokeColor=none;fillColor=none;align=center;verticalAlign=middle;whiteSpace=wrap;rounded=0;" vertex="1" parent="1">
          <mxGeometry x="711" y="-707" width="109" height="30" as="geometry" />
        </mxCell>
        <mxCell id="PQWU9yBDBzz132E5K3Gb-113" value="&lt;font style=&quot;font-size: 20px;&quot;&gt;附屬關係&lt;/font&gt;" style="text;html=1;strokeColor=none;fillColor=none;align=center;verticalAlign=middle;whiteSpace=wrap;rounded=0;" vertex="1" parent="1">
          <mxGeometry x="721" y="-677" width="109" height="30" as="geometry" />
        </mxCell>
        <mxCell id="PQWU9yBDBzz132E5K3Gb-114" value="&lt;font style=&quot;font-size: 20px;&quot;&gt;比較&lt;/font&gt;" style="text;html=1;strokeColor=none;fillColor=none;align=center;verticalAlign=middle;whiteSpace=wrap;rounded=0;" vertex="1" parent="1">
          <mxGeometry x="711" y="-647" width="109" height="30" as="geometry" />
        </mxCell>
        <mxCell id="PQWU9yBDBzz132E5K3Gb-115" value="&lt;font style=&quot;font-size: 20px;&quot;&gt;事物抽&lt;/font&gt;" style="text;html=1;strokeColor=none;fillColor=none;align=center;verticalAlign=middle;whiteSpace=wrap;rounded=0;" vertex="1" parent="1">
          <mxGeometry x="128" y="-970.5" width="109" height="30" as="geometry" />
        </mxCell>
      </root>
    </mxGraphModel>
  </diagram>
</mxfile>
